<mxfile host="app.diagrams.net" modified="2023-08-17T18:49:51.452Z" agent="Mozilla/5.0 (Windows NT 10.0; Win64; x64; rv:109.0) Gecko/20100101 Firefox/115.0" version="21.5.0" etag="3xZ1QLN9Mb0MVI3oe7Y1" type="github">
  <diagram name="Страница 1" id="cRjUhBLCW10yVQFY3db3">
    <mxGraphModel>
      <root>
        <mxCell id="0" />
        <mxCell id="1" parent="0" />
      </root>
    </mxGraphModel>
  </diagram>
</mxfile>
